<svg width="458" height="52" viewBox="0 0 458 52" fill="none" xmlns="http://www.w3.org/2000/svg">
<path d="M85.0167 45.2248C74.0223 45.2248 67.644 37.467 67.644 25.8303C67.644 14.1418 74.4375 6.70728 85.3273 6.70728C93.677 6.70728 99.6401 11.4234 101.144 19.7275H94.8081C93.6672 14.7043 89.986 12.0375 85.1115 12.0375C79.1484 12.0375 74.4277 16.8603 74.4277 25.8303C74.4277 34.8552 79.0438 39.8784 85.0592 39.8784C90.1396 39.8784 93.7718 37.2634 94.9128 32.1885H101.249C99.6924 40.5087 93.677 45.2248 85.0167 45.2248Z" fill="#007BFF"/>
<path d="M119.612 16.3593C126.353 16.3593 129.093 20.6649 129.093 27.2267V44.5589H122.924V28.7201C122.924 24.9737 122.361 21.334 117.641 21.334C112.92 21.334 111.154 24.922 111.154 29.8934V44.5589H104.989V7.38608H111.154V20.82C112.766 17.9464 115.731 16.3593 119.612 16.3593Z" fill="#007BFF"/>
<path d="M159.33 16.9734V44.5589H153.161V40.9192C151.5 43.6345 148.584 45.2248 144.864 45.2248C137.861 45.2248 132.728 39.636 132.728 30.7662C132.728 21.8964 137.861 16.3593 144.864 16.3593C148.597 16.3593 151.5 17.9464 153.161 20.6649V16.9734H159.33ZM139.159 30.7662C139.159 36.6104 141.699 40.2501 146.21 40.2501C150.255 40.2501 153.403 37.1244 153.403 30.7662C153.403 24.408 150.255 21.334 146.21 21.334C141.699 21.334 139.159 24.922 139.159 30.7662Z" fill="#007BFF"/>
<path d="M190.339 16.4142C197.08 16.4142 199.82 20.7198 199.82 27.2817V44.6074H193.657V28.7686C193.657 25.0254 193.088 21.3857 188.367 21.3857C183.647 21.3857 181.884 24.9737 181.884 29.9452V44.6074H175.715V17.0284H181.884V20.875C183.493 18.0046 186.448 16.4142 190.339 16.4142Z" fill="#007BFF"/>
<path d="M214.963 21.0786C212.266 21.0786 209.778 22.2585 209.778 24.1042C209.778 25.9499 211.125 26.9229 213.511 27.3851L217.454 28.1544C223.103 29.2308 227.409 30.9731 227.409 36.3583C227.409 42.1023 221.913 45.2798 215.584 45.2798C208.741 45.2798 204.177 41.4332 203.504 36.2031H209.519C210.088 39.025 212.164 40.6671 215.793 40.6671C219.007 40.6671 221.393 39.3321 221.393 37.0759C221.393 34.8197 219.321 33.795 216.571 33.281L212.37 32.4632C207.653 31.5388 203.968 29.4377 203.968 24.4113C203.968 19.54 209.258 16.4142 215.326 16.4142C220.772 16.4142 225.748 19.0293 226.889 24.5664H221.083C220.409 22.0548 218.075 21.0786 214.963 21.0786Z" fill="#007BFF"/>
<path d="M239.466 9.74899V17.0284H245.066V21.4374H239.466V36.4617C239.466 39.2804 240.139 39.9463 242.784 39.9463H245.014V44.6074H240.437C234.474 44.6074 233.28 43.0171 233.28 37.3765V21.4374H229.145V17.0284H233.293V9.74899H239.466Z" fill="#007BFF"/>
<path d="M274.774 17.0284V44.6074H268.601V40.9742C266.944 43.6894 264.024 45.2798 260.304 45.2798C253.304 45.2798 248.168 39.6909 248.168 30.8212C248.168 21.9514 253.304 16.4142 260.304 16.4142C264.037 16.4142 266.944 18.0046 268.601 20.7198V17.0284H274.774ZM254.602 30.8212C254.602 36.6654 257.142 40.3051 261.654 40.3051C265.698 40.3051 268.846 37.1793 268.846 30.8212C268.846 24.463 265.685 21.3889 261.654 21.3889C257.142 21.3889 254.602 24.9769 254.602 30.8212Z" fill="#007BFF"/>
<path d="M298.989 26.4638C298.482 23.5385 295.867 21.4891 292.506 21.4891C288.671 21.4891 285.196 24.311 285.196 30.8211C285.196 37.383 288.72 40.1952 292.352 40.1952C295.357 40.1952 298.417 38.8602 299.195 35.1688H305.21C303.968 41.6336 298.211 45.2701 292.248 45.2701C284.156 45.2701 278.818 39.0671 278.818 30.8632C278.818 22.6593 284.208 16.4045 292.506 16.4045C298.574 16.4045 303.968 20.2834 305.004 26.4541L298.989 26.4638Z" fill="#007BFF"/>
<path d="M315.024 28.1027L325.342 17.0284H332.757L322.076 28.3613L333.95 44.6074H326.758L317.996 32.6475L315.054 35.7764V44.6074H308.852V7.43457H315.024V28.1027Z" fill="#007BFF"/>
<path d="M170.72 44.559H164.548V16.9734H170.72V44.559Z" fill="#007BFF"/>
<path d="M167.634 15.0211C169.952 15.0211 171.832 13.1629 171.832 10.8706C171.832 8.57843 169.952 6.72021 167.634 6.72021C165.315 6.72021 163.436 8.57843 163.436 10.8706C163.436 13.1629 165.315 15.0211 167.634 15.0211Z" fill="#007BFF"/>
<path d="M37.5636 37.1405H11.9916C11.1006 37.1423 10.218 36.9701 9.39448 36.634C8.57092 36.2979 7.82257 35.8043 7.19231 35.1816L1.96152 30.0098C0.701796 28.754 -0.00350169 27.0559 -3.21175e-05 25.2872V11.8565C-0.0018217 10.9756 0.172258 10.1029 0.512227 9.28865C0.852197 8.47437 1.35137 7.73444 1.98113 7.11128L7.21192 1.93941C8.48323 0.693685 10.2017 -0.00362702 11.9916 -4.73205e-05H37.5636V7.43453H14.2768C12.4851 7.43624 10.7673 8.14072 9.50038 9.39336C8.23347 10.646 7.52096 12.3444 7.51923 14.1159V23.0245C7.51923 24.7971 8.23098 26.4972 9.49807 27.7513C10.7652 29.0053 12.484 29.7107 14.2768 29.7124H37.5636V37.1405Z" fill="#007BFF"/>
<path d="M15.0385 14.8691H40.6138C42.4004 14.8674 44.1152 15.5646 45.3837 16.8086L50.6145 21.9805C51.883 23.2347 52.5956 24.9358 52.5956 26.7095V40.1402C52.5956 41.914 51.883 43.615 50.6145 44.8693L45.3837 50.0411C44.1152 51.2954 42.3947 52 40.6008 52H15.0385V44.5654H38.3254C40.1193 44.5654 41.8398 43.8608 43.1083 42.6066C44.3768 41.3524 45.0894 39.6513 45.0894 37.8775V28.9722C45.0894 27.1985 44.3768 25.4974 43.1083 24.2432C41.8398 22.9889 40.1193 22.2843 38.3254 22.2843H15.0385V14.8691Z" fill="#007BFF"/>
<path d="M352.474 39.4206V7.42859H345.959V44.9597H371.2V39.4206H352.474Z" fill="white"/>
<path d="M373.017 37.2982C373.017 42.3713 377.224 45.6327 383.226 45.6327C387.279 45.6327 390.562 44.1832 392.307 41.1807C392.409 43.0961 392.614 43.7691 392.82 44.9597H398.412C397.899 42.6302 397.591 38.9547 397.591 35.4346C397.591 32.898 397.693 29.6367 397.693 28.2389C397.847 19.335 392.666 16.2808 386.048 16.2808C379.379 16.2808 374.71 20.1633 374.3 25.8577H380.302C380.456 22.4928 382.765 20.8363 385.843 20.8363C388.869 20.8363 391.588 22.2857 391.588 27.0483V27.566C381.482 28.6013 373.017 30.3614 373.017 37.2982ZM391.742 31.8626V33.9851C391.742 38.6959 389.075 41.0254 384.56 41.0254C381.482 41.0254 379.481 39.5759 379.481 37.1429C379.481 33.9333 383.021 32.6909 391.742 31.8626Z" fill="white"/>
<path d="M409.972 7.42859H403.867V44.9597H409.972V41.2842C411.613 44.0279 414.486 45.6327 418.18 45.6327C424.695 45.6327 430.185 39.9901 430.185 31.0344C430.185 22.1304 424.695 16.4878 418.18 16.4878C414.486 16.4878 411.613 18.0926 409.972 20.8363V7.42859ZM416.846 40.6113C412.845 40.6113 409.715 37.4535 409.715 31.0344C409.715 24.6152 412.845 21.5092 416.846 21.5092C420.899 21.5092 423.823 25.1847 423.823 31.0344C423.823 36.9358 420.899 40.6113 416.846 40.6113Z" fill="white"/>
<path d="M451.129 24.7188H456.875C455.746 19.1279 450.821 16.4878 445.434 16.4878C439.432 16.4878 434.199 19.6456 434.199 24.5635C434.199 29.6367 437.842 31.7591 442.51 32.6909L446.666 33.5192C449.385 34.0369 451.437 35.0722 451.437 37.3499C451.437 39.6277 449.077 40.9736 445.896 40.9736C442.305 40.9736 440.253 39.3171 439.689 36.4699H433.738C434.405 41.7501 438.919 45.6327 445.691 45.6327C451.95 45.6327 457.388 42.4231 457.388 36.6252C457.388 31.1897 453.13 29.4296 447.538 28.3425L443.639 27.566C441.279 27.1001 439.945 26.1165 439.945 24.2529C439.945 22.3893 442.408 21.1986 445.075 21.1986C448.153 21.1986 450.462 22.1822 451.129 24.7188Z" fill="white"/>
</svg>
